<svg width="266" height="90" viewBox="0 0 266 90" fill="none" xmlns="http://www.w3.org/2000/svg">
<path opacity="0.58" d="M265.832 63.9847C265.686 63.3399 265.518 64.0887 265.351 64.0263C265.059 63.9223 264.536 64.2343 264.599 63.5063C264.62 63.3399 264.431 63.2567 264.264 63.2775C263.762 63.3191 263.261 63.0903 262.738 63.3399C262.466 63.4647 262.153 63.2359 261.839 63.3399C261.714 63.3815 261.505 62.9863 261.317 62.7991C261.129 63.0279 260.92 63.1319 260.627 63.0695C260.104 62.9655 259.603 62.9655 259.226 63.5063C259.08 63.7143 258.934 63.5687 258.955 63.4231C258.996 63.0071 258.683 62.8615 258.516 62.6118C258.244 62.8615 257.993 63.0903 257.951 63.5479C257.93 63.9015 257.638 64.2135 257.324 64.796C257.324 64.1303 257.491 63.6103 257.303 63.3815C257.011 63.0071 256.488 62.8199 256.091 62.5494C255.819 62.3622 255.485 62.279 255.255 62.5286C254.878 62.9239 254.837 62.2166 254.523 62.3206C254.335 62.383 254.189 62.8823 253.938 62.4454C253.729 62.1126 253.582 62.6743 253.227 62.4246C252.725 62.071 251.994 61.9878 251.346 62.383C251.011 62.5702 250.551 62.5494 250.3 62.3622C249.632 61.8214 249.025 61.9462 248.315 62.279C248.043 62.4038 247.374 62.4454 247.959 61.6966C248.168 61.447 247.855 61.2182 247.541 61.239L246.496 60.1989C246.391 59.7413 246.642 59.45 247.06 59.4916C247.29 59.5125 247.395 59.7413 247.562 59.8037C248.252 60.0533 248.942 59.9909 249.36 59.2628C249.548 58.9508 249.548 59.1172 249.757 59.2004C250.363 59.4501 250.468 59.3044 250.384 58.5348C250.363 58.2644 250.405 57.9732 250.426 57.7027C250.426 57.5363 250.614 57.3699 250.635 57.4323C250.739 58.1396 251.304 57.0787 251.367 57.6611C251.387 57.89 251.325 58.1188 251.032 58.0772C250.886 58.0564 250.656 58.1188 250.781 58.2852C250.948 58.4932 251.241 58.6596 251.513 58.7012C251.638 58.722 251.889 58.4516 251.952 58.2644C252.036 58.0148 251.952 57.7027 252.035 57.4323C252.203 56.7875 252.454 57.4739 252.474 57.4531C252.725 56.9123 253.269 57.7443 253.52 57.1619C253.645 56.8915 253.938 56.8499 254.209 56.9123C254.816 57.0579 255.338 56.8083 255.819 56.4963C255.652 56.101 255.485 55.7266 255.338 55.3314C255.317 55.2482 255.38 55.1234 255.422 55.0402C255.485 54.9362 255.547 54.9986 255.652 55.1026C255.903 55.373 256.091 55.4978 256.321 54.9986C256.53 54.5409 256.906 54.1665 257.241 53.7089C257.282 53.8753 257.303 53.9169 257.324 53.9585C257.387 54.2289 257.073 54.6866 257.617 54.7281C258.035 54.7698 257.889 54.3537 257.951 54.1249C258.098 53.6881 258.286 53.6257 258.578 53.9377C258.808 54.1665 258.996 54.4369 259.205 54.6865C259.289 54.8114 259.352 54.853 259.519 54.6241C259.644 54.3537 259.352 53.8337 259.728 53.5009C260.021 53.7089 260.104 54.2705 260.522 54.2081C261.066 54.1249 260.752 53.5841 260.836 53.2513C260.878 53.064 260.982 52.9808 261.087 52.856C261.275 52.6064 261.317 52.3568 260.961 52.232C260.585 52.1072 260.313 51.6496 259.853 51.816C259.728 51.3375 259.435 50.9631 259.143 50.6095C258.996 50.4223 258.787 50.2767 258.62 50.4431C258.369 50.6719 258.223 50.6927 258.056 50.4015C257.889 50.1103 257.617 49.819 257.282 49.9855C256.885 50.1935 256.634 50.0479 256.258 49.9439C255.756 49.7982 255.505 49.5902 255.38 49.0286C255.317 48.6958 254.857 48.7374 254.586 48.883C254.377 48.987 254.398 49.2574 254.565 49.4446C254.648 49.5486 254.816 49.6942 254.586 49.7982C254.46 49.8606 254.189 49.8814 254.189 49.6942C254.147 49.2158 253.938 49.0286 253.52 49.0702C253.436 49.0702 253.269 48.9662 253.269 48.9454C253.415 47.8845 252.474 47.5101 252.14 46.8237C252.349 46.3868 252.663 46.3036 253.081 46.3452C253.791 46.4284 254.439 46.3452 254.816 45.5132C254.983 45.1387 255.401 45.1804 255.777 45.1387C256.843 45.0347 258.014 45.0971 258.725 44.0155C259.059 44.1611 258.85 44.6395 258.976 44.5771C259.582 44.3275 259.895 44.7227 260.292 45.0763C260.627 45.3676 261.066 45.0763 261.087 44.5563C261.108 43.8283 261.547 43.537 262.027 43.2458C262.529 43.9739 262.801 43.2874 263.135 43.0378C263.407 42.8298 263.344 43.1002 263.386 43.2042C263.428 43.3082 263.386 43.4538 263.449 43.5162C263.658 43.7035 263.7 43.4538 263.7 43.3498C263.721 42.9962 263.972 42.8714 264.181 42.7258C264.515 42.4762 264.954 42.7882 264.996 43.225C265.017 43.4746 264.745 43.8491 265.163 43.9947C265.477 43.7451 264.996 42.9754 265.769 43.0586C265.999 43.0794 265.957 42.7258 265.978 42.5178C265.999 42.3514 265.978 42.185 265.853 42.081C265.79 42.2266 265.748 42.3722 265.665 42.5178C265.602 42.6426 265.477 42.8506 265.393 42.5802C265.309 42.3306 265.414 42.0186 265.309 41.7897C265.205 41.5609 264.87 42.2682 264.808 41.8105C264.682 41.0617 264.076 40.8121 263.804 40.2712C263.219 40.4793 263.323 41.1449 263.01 41.7065C262.968 40.9577 262.78 40.7497 262.195 40.4793C262.069 40.4169 261.944 40.2712 261.881 40.1256C261.735 39.7512 261.338 39.8552 261.15 39.6056C261.86 39.0648 262.696 38.9816 263.073 39.4184C263.324 39.6888 263.533 39.564 263.721 39.356C264.076 38.9816 264.473 38.6903 264.912 39.148C265.247 39.5016 265.393 39.0648 265.477 38.94C265.686 38.5655 265.748 38.1079 265.518 37.7127C265.247 37.2342 265.247 37.0054 265.853 37.0054C265.999 37.0054 266.062 36.7766 266.041 36.5894C266.02 36.423 265.916 36.319 265.727 36.319C265.226 36.319 264.703 36.111 264.243 36.5478C264.16 36.631 263.846 36.423 263.867 36.4022C264.431 35.8406 263.992 35.8822 263.616 35.8406C263.156 35.799 263.282 35.6534 263.512 35.3829C263.867 35.0085 263.825 34.6133 263.428 34.4885C263.135 34.3845 262.864 34.2597 262.592 34.1973C261.714 33.9476 262.195 33.3028 262.174 32.866C262.153 32.3667 262.487 32.1171 262.968 32.0963C263.261 32.0755 263.595 32.2835 263.846 31.9299C263.93 31.8259 264.16 31.7635 264.055 31.5971C263.992 31.5139 263.721 31.4515 263.658 31.4931C263.303 31.8259 263.156 31.8259 263.198 31.2643C263.219 31.0147 263.261 30.8274 263.449 30.7026C263.616 30.5986 263.553 30.4114 263.553 30.245C263.073 30.349 262.968 29.413 262.383 29.7874L261.651 30.2866C261.609 30.4946 261.651 30.6402 261.317 30.4946C260.501 30.1202 259.77 29.621 259.038 29.1009C258.704 28.8721 258.516 28.6225 258.139 28.9969C258.014 29.1217 257.93 28.8929 257.951 28.7265C257.993 28.3521 258.39 28.2689 258.557 27.9985C258.704 27.7489 258.746 27.3744 258.369 27.4368C257.847 27.5408 257.45 26.5008 256.885 27.312C256.822 27.3952 256.53 27.3744 256.446 27.2912C256.07 26.896 255.735 26.8752 255.255 27.208C255.025 27.3536 254.481 27.312 254.628 26.6464C254.711 26.2928 254.544 26.1055 254.209 26.1472C253.499 26.2512 253.582 25.6687 253.352 25.2319C253.039 24.6911 253.729 24.6079 253.52 24.275C253.771 24.1502 253.875 23.443 254.293 24.067C254.502 23.8798 254.983 23.8798 254.607 23.2974C254.46 23.0478 255.171 23.235 255.129 23.0062C255.067 22.7149 254.857 22.4653 254.92 22.1117C254.962 21.9037 255.108 21.7373 255.171 21.7997C255.568 22.1325 255.965 21.9661 256.342 21.8413C256.781 21.6957 256.864 22.4029 257.303 22.2573C257.429 22.2157 257.659 22.7565 257.7 22.4653C257.784 21.6957 258.746 22.0493 258.746 21.4669C258.746 20.8428 259.101 20.5932 259.415 20.2188C259.603 20.0108 259.603 19.6779 259.205 19.6571C259.017 19.6363 258.934 19.5323 258.913 19.3451C258.892 18.8251 258.662 18.8251 258.307 19.0539C258.181 19.1371 257.972 19.2619 257.909 19.1995C257.199 18.5755 256.321 18.8459 255.526 18.7419C254.648 18.6171 254.607 18.5339 254.899 17.4106C254.962 17.1818 255.067 16.745 254.774 16.6618C254.272 16.5369 253.708 16.4537 253.206 16.5785C252.161 16.8074 252.14 16.9114 251.785 16.6201C251.534 16.4121 251.262 16.3289 251.137 16.6201C250.865 17.3274 250.342 16.7034 249.924 16.9738C249.423 17.2858 248.754 16.2665 249.13 15.6841C249.548 14.9976 249.276 14.9976 248.754 14.9144C248.21 14.8312 247.917 14.1656 247.332 14.1656C247.019 14.1656 246.893 13.916 246.705 13.7496C246.559 13.604 246.559 13.4167 246.621 13.2919C246.726 13.0631 246.977 13.0423 247.144 13.2087C247.353 13.4167 247.478 13.6456 247.583 13.1255C247.688 12.6055 248.106 12.8759 248.356 12.8967C248.503 12.9175 248.649 13.1879 248.775 13.3543C249.13 13.8536 249.381 13.5 249.652 13.2503C249.903 13.0215 249.694 12.6887 249.841 12.4807C249.966 12.3143 250.112 11.9607 250.384 12.0855C250.489 12.1479 250.489 12.4599 250.572 12.7095C250.844 11.711 250.844 11.6902 250.196 11.6278C250.091 11.607 249.987 11.6278 249.882 11.607C249.36 11.5238 248.586 10.9622 248.168 10.4422C247.938 10.1717 247.729 9.5477 247.374 9.79732C246.914 10.1093 246.789 9.88052 246.559 9.58931C246.475 9.4853 246.412 9.27729 246.224 9.5061C245.973 9.81812 245.639 9.61011 245.346 9.63091C244.97 9.65171 245.054 9.36049 244.949 9.11088C244.761 8.71565 244.51 9.4437 244.217 9.21488C244.071 9.11088 244.029 8.98607 244.05 8.79886C244.05 8.46603 243.82 8.46603 243.611 8.50764C243.444 8.54924 243.423 8.73645 243.402 8.90286C243.381 9.11088 243.444 9.33969 243.193 9.4645C242.942 9.29809 242.901 8.84046 242.441 8.90286C242.023 8.96527 241.124 9.25648 240.831 9.63091C240.747 9.71411 240.789 9.92213 240.601 9.96373C240.518 9.31889 239.431 10.0469 239.556 9.06927C239.556 8.98607 239.347 8.46603 239.054 8.65325C238.469 9.02767 238.072 8.67405 237.528 8.50764C236.818 8.27882 236.441 8.05001 236.525 7.21796C236.546 7.03074 236.337 7.05155 236.211 7.19715C236.002 7.44677 235.605 7.40517 235.501 7.28036C235.145 6.86433 234.832 7.03074 234.706 7.38437C234.581 7.77959 234.393 8.00841 234.079 8.19562C233.661 7.8836 233.557 7.03074 232.72 7.44677C232.491 7.57158 232.219 7.13475 232.156 6.80193C232.052 6.3235 231.905 6.21949 231.675 5.96988C231.404 5.67866 230.672 5.69946 230.985 4.92981C231.048 4.7842 230.902 4.61779 230.714 4.63859L229.731 5.05462C229.627 5.20023 229.501 5.26263 229.334 5.22103C229.083 5.15863 228.958 4.92981 228.707 4.805C228.372 4.63859 228.226 4.36818 228.08 5.01302C227.996 5.32504 227.683 5.55385 227.285 5.13783C227.16 4.99222 226.888 4.86741 226.7 4.6802C226.575 4.55539 226.47 4.26417 226.261 4.55539C225.822 5.17943 225.237 4.95061 224.673 4.92981C224.526 4.92981 224.317 4.97141 224.422 5.13783C224.589 5.40824 224.547 5.80347 224.317 5.53305C223.711 4.88821 223.523 5.84507 223.126 5.76186C222.708 5.34584 222.728 4.53459 222.185 4.30577C221.767 4.13936 221.265 4.20177 220.91 3.78574C220.847 3.72334 220.743 3.66093 220.659 3.66093C220.429 3.68173 220.095 3.45292 220.032 3.88975C219.969 4.24337 219.844 4.7218 220.471 4.65939C220.617 4.63859 220.784 4.63859 220.889 4.86741C220.68 4.95061 220.429 5.38744 220.366 5.24183C220.115 4.7426 219.509 5.17943 219.321 4.701C219.3 4.6594 219.3 4.55539 219.342 4.53459C219.886 4.01455 219.363 3.72334 219.112 3.41132C218.966 3.2241 218.736 2.78728 218.61 2.93289C218.297 3.32811 217.9 2.99529 217.607 3.2033C217.523 3.26571 217.565 3.32811 217.649 3.45292C217.962 3.82734 217.503 3.97295 217.398 4.01455C217.022 4.13936 217.252 3.78574 217.189 3.64013C217.043 3.28651 216.604 3.1409 216.625 2.70407C216.625 2.49606 216.541 2.41285 216.374 2.37125C215.977 2.30885 215.517 2.47526 215.266 1.97603C215.203 2.05923 215.14 2.12164 215.078 2.20484C214.66 2.99529 214.451 3.80654 214.806 4.65939C214.91 4.88821 214.973 5.20023 214.785 5.22103C214.053 5.28343 214.221 5.84507 214.179 6.3027C214.137 6.84353 214.116 7.40517 214.053 8.17482C213.322 7.55078 212.611 7.55078 211.921 7.50917C211.754 7.50917 211.566 7.55078 211.461 7.46757C211.294 7.36357 211.106 7.17635 211.064 6.98914C211.043 6.88514 211.273 6.65632 211.42 6.55231C211.524 6.46911 211.712 6.46911 211.859 6.48991C212.381 6.57312 212.339 6.15709 212.318 5.84507C212.256 5.22103 211.921 5.11702 211.44 5.42904C211.378 5.47065 211.273 5.36664 211.169 5.32504C211.211 5.24183 211.231 5.15863 211.273 5.09622C211.44 4.7634 211.817 4.84661 212.068 4.65939C211.691 4.20177 212.068 4.26417 212.318 4.03536C212.82 3.57773 213.029 4.11856 213.364 4.18096C213.614 4.22257 213.677 4.47218 213.844 4.55539C213.97 4.61779 214.179 4.65939 214.262 4.47218C214.325 4.34738 214.346 4.11856 214.262 4.03536C213.823 3.49452 213.468 2.93289 213.51 2.16324C213.531 1.80962 213.405 1.91362 213.175 1.99683C212.778 2.14244 212.318 2.43365 212.277 1.5184C212.235 0.748749 211.691 0.436729 210.918 0.727947C210.5 0.873556 210.186 1.31038 210.144 0.45753C210.144 0.415928 209.998 0.332722 209.935 0.353524C209.475 0.415928 209.016 0.977563 209.016 1.5808C209.016 1.72641 209.078 1.85122 208.911 1.89282C208.827 1.91362 208.66 1.91362 208.618 1.85122C208.472 1.6432 208.284 1.47679 208.179 1.18558C208.012 0.665543 207.908 0.665543 207.594 1.18558C207.343 1.6016 207.134 1.6016 206.946 1.20638C206.779 0.852755 206.695 0.436729 206.57 0.0415039C206.256 0.332722 205.964 0.540735 205.985 1.01917C206.005 1.24798 206.11 1.6224 205.734 1.70561C205.483 1.76801 205.357 1.56 205.232 1.39359C204.939 0.93596 204.709 0.915159 204.229 1.24798C203.664 1.6432 204.02 0.45753 203.476 0.561537C203.434 0.561537 203.351 0.540735 203.33 0.582338C203.079 1.08157 202.535 0.686345 202.222 0.977563C202.724 1.24798 203.163 1.6224 203.393 2.16324C203.455 2.32965 203.413 2.66247 203.309 2.78728C203.058 3.0785 203.058 2.57926 202.891 2.55846C202.222 2.49606 201.511 2.64167 201.114 1.83042C201.009 1.64321 200.738 1.72641 200.591 1.91362C200.424 2.12163 200.215 2.01763 200.006 2.03843C199.672 2.08003 199.504 1.43519 199.233 1.66401C198.815 2.01763 198.585 1.97603 198.187 1.6016C197.978 1.39359 197.728 1.6432 197.728 2.01763C197.728 2.16324 197.686 2.32965 197.644 2.51686C197.142 2.22564 196.641 2.05923 196.264 1.68481C195.972 1.41439 195.7 1.43519 195.407 1.41439C194.843 1.35199 194.717 1.6016 195.052 2.05923C195.282 2.37125 194.947 2.39205 194.864 2.53766C194.78 2.68327 194.634 2.74567 194.529 2.53766C194.237 1.95522 193.714 1.91362 193.191 1.95522C192.794 1.99683 192.418 1.6224 192.125 1.70561C191.707 1.83042 191.373 1.97603 191.038 1.5808C190.955 1.47679 190.871 1.47679 190.808 1.6224C190.537 2.47526 190.16 2.22564 189.701 1.80962C189.492 1.6224 189.22 1.66401 189.178 2.08003C189.157 2.22564 189.115 2.47526 188.948 2.26724C188.739 2.01763 188.509 2.01763 188.258 1.97603C187.84 1.91362 187.527 1.95522 187.568 2.53766C187.589 2.78728 187.506 2.99529 187.213 2.93289C186.983 2.89128 186.628 3.05769 186.628 2.62087C186.628 2.35045 186.544 2.22564 186.293 2.20484C185.875 2.18404 185.457 2.14244 185.039 2.12163C184.725 2.12163 184.663 2.45446 184.746 2.57926C185.436 3.36971 184.454 3.2033 184.328 3.26571C183.827 3.51532 184.119 3.01609 184.098 2.84968C184.057 2.62087 184.119 2.41285 183.806 2.39205C183.492 2.37125 183.555 2.62087 183.45 2.78728C183.241 3.1409 183.074 3.1201 182.844 2.70407C182.802 2.62087 182.823 2.43365 182.781 2.41285C182.656 2.35045 182.468 2.28805 182.363 2.35045C182.092 2.49606 182.447 2.60007 182.405 2.70407C182.301 3.01609 182.154 3.30731 182.008 3.61933C181.841 3.0785 181.193 3.80654 181.026 3.2033C180.984 3.0785 180.816 2.74567 180.607 3.05769C180.315 3.51532 179.729 3.43212 179.458 3.82734C179.165 4.24337 178.998 3.97295 178.768 3.78574C178.162 3.28651 177.409 3.24491 176.719 3.36971C176.218 3.45292 175.904 3.70253 175.361 3.30731C174.943 3.01609 174.19 2.95369 173.584 3.32811C173.249 3.53612 172.915 3.51532 172.622 3.1617C172.539 3.0785 172.288 3.01609 172.225 3.0785C171.932 3.32811 172.413 3.41132 172.35 3.55693C172.183 3.95215 171.619 4.18096 171.18 3.86895C170.804 3.61933 170.845 3.70253 170.741 4.03536C170.657 4.34738 169.947 4.86741 169.675 4.90901C169.633 4.90901 169.549 4.92981 169.528 4.95061C169.299 5.42904 168.818 4.57619 168.609 5.17943C168.295 4.86741 168.044 4.53459 168.191 4.01455C168.212 3.95215 168.107 3.86895 168.044 3.78574C167.793 4.11856 167.814 4.6802 167.292 4.6802C167.271 4.57619 167.271 4.47218 167.229 4.36818C167.041 3.97295 167.731 3.70253 167.438 3.43212C167.187 3.2241 166.79 3.45292 166.456 3.61933C166.184 3.76494 165.766 3.88975 165.473 3.88975C164.951 3.91055 165.118 4.36818 164.909 4.51379C164.491 4.805 164.303 3.97295 163.989 4.20177C163.571 4.53459 163.383 4.34737 163.195 4.01455C162.986 3.66093 162.568 3.66093 162.379 3.78574C162.024 4.05616 161.794 4.16016 161.481 3.74414C161.334 3.55693 160.979 3.53612 160.77 3.70253C160.017 4.24337 159.244 3.82734 158.491 3.76494C158.22 3.74414 157.634 3.70253 157.488 3.01609C157.383 2.53766 157.007 2.57926 156.589 3.1409C156.422 3.36971 156.255 3.41132 156.087 3.30731C155.899 3.1617 155.878 2.91208 156.066 2.74567C156.275 2.57926 156.275 2.47526 156.108 2.24644C155.92 1.99683 155.544 2.03843 155.481 1.85122C155.314 1.20638 154.812 2.30885 154.687 1.6432C154.687 1.6224 154.603 1.56 154.582 1.5808C154.352 1.72641 154.436 1.97603 154.415 2.18404C154.394 2.37125 154.29 2.57926 154.164 2.51686C153.516 2.24644 153.453 2.91208 153.161 3.2033C153.056 3.30731 152.889 3.64013 152.764 3.2241C152.617 2.80808 152.638 2.20484 151.969 2.68327C151.698 2.16324 151.3 2.24644 150.799 2.26724C149.837 2.26724 148.896 2.76648 147.914 2.45446C147.517 2.32965 147.35 2.68327 147.12 2.89128C146.89 3.0993 146.722 3.05769 146.451 2.91209C145.928 2.64167 145.468 1.83042 144.758 2.57926C144.695 2.49606 144.59 2.43365 144.59 2.35045C144.674 1.76801 144.256 1.83042 143.984 1.89282C143.587 1.99683 143.294 1.37279 143.106 1.6432C142.688 2.20484 142.375 1.20638 141.956 1.68481C141.706 1.95522 141.476 2.74567 140.849 2.22564C140.43 1.87202 139.929 2.72487 139.553 2.10083C139.448 1.93442 139.239 1.93442 139.239 2.08003C139.281 2.64167 138.863 2.47526 138.633 2.62087C138.298 2.82888 137.776 3.76494 137.922 2.39205C137.922 2.32965 137.818 2.24644 137.755 2.16324C137.379 2.80808 136.626 2.08003 136.208 2.66247C135.79 3.24491 135.225 3.28651 134.557 3.36971C134.118 3.41132 133.783 3.72334 133.344 3.32811C133.01 3.03689 132.487 2.99529 132.529 2.32965C132.529 2.12163 132.111 2.03843 132.048 2.20484C131.693 3.1617 131.296 3.1617 130.752 2.39205C130.689 2.30885 130.48 2.37125 130.334 2.49606C129.749 3.0785 128.683 1.95522 128.264 3.1825C128.202 3.1201 128.076 3.0785 128.076 3.01609C128.076 2.78728 128.118 2.53766 127.826 2.53766C127.303 2.51686 126.592 2.30885 126.32 2.57926C125.819 3.0785 125.422 2.12164 125.066 2.66247C124.544 1.91362 123.687 2.53766 123.059 2.08003C122.516 1.68481 121.743 2.60007 121.178 1.78881C121.095 1.66401 120.885 1.85122 120.865 2.01763C120.739 2.82888 119.903 2.03843 119.631 2.68327C119.569 2.84968 119.213 2.47526 119.067 2.26724C118.628 1.68481 118.711 2.26724 118.607 2.49606C118.523 2.68327 118.335 2.57926 118.189 2.62087C117.645 2.78728 117.123 3.01609 116.558 2.84968C116.078 2.70407 115.555 3.24491 115.074 2.76648C115.053 2.74567 114.844 2.84968 114.823 2.91209C114.782 3.0785 115.262 3.1617 114.949 3.39051C114.802 3.49452 114.552 3.39051 114.343 3.41132C114.05 3.43212 113.862 3.28651 113.695 3.03689C113.465 3.24491 113.172 3.43212 113.005 3.68173C112.628 4.26417 112.378 3.64013 112.148 3.55693C111.625 3.36971 112.273 3.24491 112.273 3.03689C112.252 2.87048 112.315 2.68327 112.148 2.60007C112.022 2.53766 111.855 2.51686 111.709 2.66247C111.186 3.1825 110.998 3.1825 110.726 2.68327C110.643 2.53766 110.831 2.24644 110.413 2.16324C110.392 2.60007 110.35 3.01609 110.329 3.57773C109.995 3.1825 110.036 2.64167 109.472 2.72487C108.949 2.80808 109.138 3.1825 109.075 3.45292C108.949 4.05616 108.949 4.05616 108.343 3.78574C108.301 3.76494 108.239 3.72334 108.239 3.72334C107.821 4.16016 107.423 4.16016 107.047 3.66093C106.755 4.18096 106.148 3.66093 105.835 4.09776C105.73 4.24337 105.668 4.24337 105.605 4.09776C105.563 3.99375 105.542 3.88975 105.584 3.78574C105.626 3.61933 105.751 3.55693 105.918 3.55693C106.441 3.53612 106.274 3.03689 106.232 2.78728C106.169 2.43365 105.897 2.47526 105.647 2.68327C105.291 2.99529 104.33 2.53766 104.581 3.66093C104.601 3.74414 104.183 3.97295 103.995 4.13936C103.535 4.57619 103.159 3.86895 102.846 4.09776C102.49 4.34738 102.177 4.53459 101.968 4.05616C101.675 3.36971 101.299 4.09776 100.985 3.93135C100.902 3.88975 100.818 3.76494 100.818 3.68173C100.797 3.45292 100.839 3.2241 100.86 3.01609C100.881 2.78728 100.881 2.53766 100.567 2.55846C100.379 2.57926 100.128 2.41285 99.9817 2.64167C99.8563 2.84968 99.919 3.03689 100.065 3.2241C100.191 3.41132 100.504 3.49452 100.421 3.82734C99.7936 4.07696 99.5219 3.80654 99.4382 3.03689C99.0411 3.45292 98.7275 3.80654 98.3931 4.13936C98.2885 4.24337 98.1631 4.30577 98.0377 4.38898C97.8078 3.82734 97.5778 4.40978 97.327 4.38898C96.8462 4.34738 96.3863 4.28497 95.9055 4.30577C95.4247 4.32657 95.3411 3.84814 95.0485 3.68173C94.6095 3.47372 94.5259 4.28497 94.066 4.18096C93.8778 4.13936 93.6897 4.11856 93.5016 3.99375C92.5818 3.32811 91.6621 4.32657 90.7423 4.07696C90.7214 4.07696 90.6796 4.16016 90.6587 4.20177C90.5542 4.86741 90.2406 4.805 89.9688 4.36818C89.6135 3.78574 89.07 3.74414 88.6101 3.91055C88.192 4.05616 87.7949 3.95215 87.3768 4.07696C86.9169 4.20177 86.3943 4.24337 85.9135 4.30577C85.161 4.38898 84.2412 4.57619 83.635 3.64013C83.4887 3.41132 83.0915 3.57773 82.7989 3.59853C82.0672 3.68173 81.2729 3.93135 80.6458 3.2241C80.374 2.91209 79.7887 3.47372 79.6424 2.76648C79.6006 2.53766 79.3498 2.57926 79.1198 2.64167C78.1791 2.89128 78.1791 2.89128 77.8656 3.84814C77.343 3.24491 77.3639 3.26571 76.7577 3.61933C76.2351 3.93135 75.6916 4.18096 75.3153 3.0785C74.8764 3.49452 74.5419 3.80654 74.1865 4.13936C74.0193 4.01455 73.9775 3.39052 73.3713 3.86895C73.0995 4.09776 72.4933 3.74414 72.1171 4.11856C71.4063 3.26571 71.1555 4.28497 70.8001 4.57619C70.6329 4.7218 70.7374 5.20023 70.6538 5.53305C70.5493 5.94908 70.1939 6.01148 69.8177 5.67866C69.6922 5.55385 69.6504 5.38744 69.3578 5.53305C68.8979 5.76186 68.2499 6.05308 68.1035 5.07542C68.0826 4.90901 67.999 4.92981 67.8736 5.03382C67.6228 5.28343 67.3719 5.72026 66.9747 5.26263C66.6821 5.57465 66.1177 5.69946 65.9923 5.94908C65.6787 6.55231 65.177 6.57312 64.7171 6.80193C64.3409 6.98914 64.3618 7.11395 64.2155 6.59392C64.0064 5.88667 63.4629 5.78267 63.2121 6.3235C62.7522 7.38437 62.0833 6.92674 61.4562 6.76033C61.2889 6.71872 61.0799 6.42751 60.9336 6.57312C60.4737 7.05155 59.9302 6.71872 59.4494 6.78113C58.8641 6.88514 58.6133 6.46911 58.3624 6.03228C58.3415 5.99068 58.1743 6.03228 58.0698 6.07388C57.9443 6.13629 58.0489 6.19869 58.0698 6.3235C58.2788 7.36357 58.1325 7.50917 57.2754 7.34276C57.0873 7.30116 57.0246 7.17635 56.8992 7.09315C56.4184 6.67712 55.8749 7.28036 55.3732 7.05155C54.7043 7.61318 54.6833 7.63398 54.098 6.94754C53.68 6.44831 53.4918 7.11395 53.1574 7.09315C52.7602 7.07235 52.154 6.86433 52.0495 7.36357C51.9032 8.07081 51.0879 6.80193 51.1715 7.80039C51.1924 7.946 50.9207 7.9252 50.8789 7.75879C50.8162 7.38437 51.0461 6.98914 50.7744 6.55231C50.3145 7.46757 49.541 7.23876 48.8512 7.13475C47.8269 6.98914 47.1371 7.61318 46.4264 8.23722C46.3428 8.29962 46.4055 8.67405 46.2591 8.65325C45.5484 8.54924 44.8586 8.88206 44.1688 8.88206C43.7716 8.88206 43.3326 8.05001 43.1236 9.11088C43.1027 9.21488 42.9773 9.17328 42.9146 9.02767C42.8518 8.86126 43.04 8.50764 42.7264 8.57004C42.4965 8.61164 42.5592 8.98607 42.601 9.17328C42.6846 9.61011 43.1027 10.0261 42.7055 10.4838C42.1411 10.2341 42.2247 9.71411 42.2665 9.21488C42.2874 9.02767 42.2456 8.90286 42.0575 8.75725C41.6603 8.92366 41.2004 8.52844 40.7197 8.86126C40.6988 9.23568 40.6988 9.63091 40.636 10.0261C40.5733 10.359 40.7615 10.775 40.3852 11.0662C40.2807 10.3798 40.2598 10.359 39.1728 9.40209C39.1519 9.4437 39.1101 9.4853 39.1101 9.5477C39.1101 10.0469 39.0892 10.5046 38.4202 10.2757C37.7304 10.0261 38.5875 9.88052 38.483 9.63091C38.4202 9.4853 38.4412 9.31889 38.2739 9.25648C38.1276 9.21488 37.9395 9.21488 37.8559 9.38129C37.7304 9.65171 38.0022 10.1093 37.5423 10.1925C37.166 10.2549 37.0406 9.83892 36.8525 9.61011C36.6852 9.40209 36.4553 9.5061 36.2672 9.4437C35.7446 9.25648 35.3683 9.85972 34.8039 9.75572C34.4903 9.69331 34.3231 10.3174 33.9678 10.9622C34.1141 9.96373 33.9887 9.4229 33.1525 9.61011C33.1107 9.63091 33.0271 9.63091 33.0062 9.58931C32.7344 9.31889 32.5463 9.09007 32.3582 9.75572C32.2955 9.94293 32.2118 10.3798 31.9192 10.5462C31.9192 9.88052 31.3339 9.65171 30.9576 9.5269C30.5814 9.4229 29.9542 9.00687 29.5989 9.71411C29.4525 9.38129 28.9927 10.6502 28.93 9.5477C28.93 9.33969 28.4283 9.17328 28.1565 8.98607C27.8012 9.58931 27.1949 8.96527 26.756 9.36049C26.1498 9.90133 26.108 9.88052 25.669 9.4645C25.4808 9.27729 25.3554 8.94447 25.0419 9.09007C24.7074 9.23568 25.4181 9.75572 24.8328 9.90133C25.3972 10.4214 24.8328 11.1702 25.1255 11.7942C25.4599 11.815 25.8153 11.8358 26.1707 11.8566C26.2752 11.8566 26.3797 11.8566 26.4842 11.8774C26.9232 11.9399 27.0695 11.4822 27.3622 11.2742C27.7593 11.0038 27.2368 10.879 27.2786 10.6502C27.2995 10.4838 27.3204 10.2965 27.4667 10.2549C27.5712 10.2341 28.1565 11.1286 28.0729 11.2326C27.613 11.8774 27.8639 12.6263 27.7384 13.3127C27.6966 13.7704 27.3831 13.5624 27.1531 13.6248C26.7978 13.7496 26.1916 13.1463 26.0661 14.0616C26.0452 14.2904 25.8571 14.1032 25.7526 13.9992C25.6063 13.8328 25.5017 13.604 25.3345 13.5208C25.1673 13.4375 24.9164 13.4375 24.8537 13.7496C24.8328 13.916 24.7492 14.1864 24.8328 14.2488C25.5645 14.8936 24.5193 15.3929 24.6865 16.0169C24.7283 16.1625 24.352 16.2665 24.2057 16.1001C24.0385 15.9129 23.7667 15.7673 23.8085 15.4345C23.8294 15.2265 23.6831 15.0392 23.5577 15.1225C23.1396 15.4137 22.5961 15.2057 22.199 15.6009C21.7809 16.0377 21.2374 16.1625 20.9865 15.8089C20.8193 15.5801 20.9238 15.0809 20.4639 15.2681C20.1713 15.3929 20.3176 15.7673 20.2758 16.0169C20.2549 16.1209 20.2549 16.2457 20.2549 16.3497C20.2131 16.7242 20.1504 16.849 19.9414 16.7034C19.3142 16.3289 19.7532 17.2026 19.4606 17.1402C19.3769 17.1194 19.3142 17.057 19.2515 16.9946C19.1052 16.8282 18.9798 16.6618 18.7916 16.4537C18.6453 16.6201 18.5199 16.7866 18.3527 16.9114C17.9346 17.2234 17.8301 17.5146 18.2481 17.9722C18.8544 18.6379 19.0634 18.7419 20.1086 18.5963C20.0877 18.8875 20.5894 19.2203 20.025 19.4699C19.8786 19.5323 19.4188 20.1564 19.356 20.2812C19.3142 20.3644 19.2306 20.5308 19.2097 20.5308C19.0425 20.4684 19.0425 20.3228 19.0425 20.1564C19.0425 20.0316 19.0216 19.7403 18.8125 19.9692C18.4363 20.4268 17.851 19.9068 17.4329 20.3228C18.1227 20.51 18.2272 20.5932 18.6662 21.2172C18.3109 21.7165 18.0182 22.2365 18.6035 22.7773C18.8544 23.0062 18.8335 23.1726 18.5617 23.3806C18.3736 23.547 18.2691 23.7966 17.9973 24.2334C17.9346 23.443 17.4538 23.1102 17.9137 22.6317C18.1018 22.4445 17.8719 22.2157 17.3075 22.1741L16.4086 21.6125C16.3041 21.4253 16.1369 21.4669 16.116 21.6333C16.0533 22.1325 16.0324 22.6525 16.0114 23.1518C15.9905 23.4846 15.7397 23.3806 15.5516 23.443C15.1126 23.5886 14.9036 22.7565 14.6109 23.0478C13.8793 23.8174 13.712 22.8189 13.1476 22.5693C13.294 23.2558 13.0849 23.7758 12.5205 23.9006C11.9561 24.0046 12.3742 23.1934 11.9561 23.0894C11.8725 23.0686 11.8098 22.9437 11.7471 22.8605C11.6217 22.9646 11.5171 23.0894 11.3917 23.1934C11.0155 23.5678 10.3883 23.9422 11.4126 24.2542C11.5799 24.2958 11.538 24.6079 11.4544 24.6911C11.0991 25.0239 11.0782 25.1279 11.6008 25.2319C11.8098 25.2735 11.9352 25.7311 12.1025 26.0223C12.4996 25.6063 12.3742 25.2527 12.416 24.9199C12.4578 24.6079 12.6041 24.5246 12.8341 24.5871C13.2313 24.7119 12.9386 24.8367 12.8341 25.0031C12.5414 25.4815 13.3358 26.0639 12.7087 26.5008C12.7505 26.5424 12.7714 26.6048 12.8132 26.6048C13.1476 26.7088 13.9211 26.1888 13.942 25.8559C13.9629 25.5439 14.0883 25.2111 13.8166 24.9199C13.5657 24.6495 13.9629 24.6079 14.0674 24.483C14.3182 24.1918 14.381 24.5871 14.4855 24.6911C14.7572 24.9615 14.6945 25.3151 14.5273 25.5855C14.381 25.8143 14.151 25.9599 14.3182 26.2928C14.5482 26.3968 14.6109 26.1055 14.799 26.0431C15.3007 25.8767 15.7397 25.6895 15.8233 26.5216C15.8233 26.6256 15.8651 26.9584 16.0533 26.688C16.2623 26.3968 16.8267 26.7088 16.8058 26.0639C16.7849 25.5647 16.7222 25.0031 16.9939 24.5246C17.5792 24.8367 17.3911 25.4191 17.5374 25.8767C17.8301 25.5855 17.9764 24.8783 18.2691 24.9823C18.7916 25.1903 18.0391 25.6063 18.1854 25.8351C18.4154 26.1888 18.3109 26.7504 18.7707 26.9376C18.8962 26.9792 19.0634 26.9792 19.1888 26.9376C19.2515 26.9168 19.3142 26.688 19.2933 26.6672C18.7707 26.1263 19.3351 25.2527 18.8125 24.6911C18.7289 24.6079 18.8335 24.3998 19.0007 24.3166C19.2515 24.9615 19.5651 24.2334 19.8577 24.3374C20.1295 24.4414 20.0459 24.6703 20.0877 24.8783C20.1295 25.0863 20.0668 25.7727 20.025 25.9807C19.9832 26.2304 19.7114 26.48 19.7114 26.48C20.443 27.3744 19.4188 27.312 19.147 27.6448C18.7498 28.1233 19.1888 27.9777 19.3769 28.0609C19.5233 28.1233 19.586 28.2897 19.5442 28.4769C19.5024 28.6433 19.377 28.8305 19.2306 28.7265C18.8544 28.4353 18.5408 29.309 18.1854 28.7473C17.8301 29.1009 17.3284 28.8097 16.973 29.1009C16.6804 29.3506 16.3668 29.309 16.116 29.1217C15.8442 28.9137 16.2414 28.4561 15.9487 28.2065C15.1126 28.8721 14.9454 28.8721 13.6284 28.8305C13.4194 28.8305 13.2313 28.9761 13.0849 28.7057C12.855 28.9137 12.625 29.1009 12.3533 29.3298C12.2697 28.9969 12.0188 28.4561 12.1025 28.3729C12.7505 27.8529 11.8725 27.4992 12.0188 27.0624C12.0606 26.9376 11.768 26.8752 11.6426 26.9168C11.4753 26.9584 11.3499 27.1872 11.4335 27.2912C11.7889 27.6864 11.3917 28.1649 11.6217 28.6017C11.8098 28.9969 11.2036 29.7042 11.0364 29.5378C10.5556 29.0177 9.82394 29.3922 9.36406 28.9137C9.09231 28.6225 8.84147 28.2897 9.48948 28.1233C9.61491 28.0817 9.86575 28.1025 9.69852 27.8945C9.42677 27.5616 9.5522 26.9792 9.11322 26.792C8.88328 26.688 8.59062 26.6048 8.38159 26.792C8.19345 26.9376 8.23526 27.1664 8.40249 27.3536C8.96689 28.0193 8.17255 28.4145 8.08893 28.9553C8.06803 29.1217 7.75447 29.1009 7.69176 28.9969C7.14827 28.2273 7.29459 29.1841 7.10646 29.2673C6.47935 29.5586 6.68838 28.8513 6.47935 28.6641C6.45844 28.6433 6.29121 28.8097 6.29121 28.8097C6.50025 29.1633 5.62229 29.3506 6.16579 29.7458C6.2285 29.7874 6.1867 30.0994 6.12398 30.1826C5.93585 30.3906 5.93585 30.0578 5.81043 30.0162C5.41326 29.8706 5.03699 29.7042 5.01609 29.1841C4.99518 28.8513 4.80705 28.8097 4.61892 28.8513C4.38897 28.9137 4.22174 29.2881 3.95 29.1217C3.55282 28.8929 4.20084 28.7473 4.03361 28.5601C3.78277 28.2481 3.72005 28.4145 3.4065 28.8929C3.15565 29.2881 3.07204 29.829 2.59125 30.037C2.42402 30.0994 2.3195 29.3506 2.11047 29.9746C1.98504 30.3698 2.2986 30.4114 2.57035 30.4114C2.67487 30.4114 2.80029 30.4114 2.863 30.453C2.92571 30.4946 2.96752 30.6194 2.98842 30.7234C3.03023 30.9107 2.92571 31.0563 2.75848 31.0771C2.54945 31.0979 2.2777 31.1187 2.17318 30.9939C1.77601 30.5154 1.85962 30.869 1.67149 31.1811C1.29522 31.8467 0.877147 31.7843 0.479976 31.1603C0.375458 31.0147 0.66811 30.3074 0.0409979 30.8274C-0.356173 31.1603 -0.00080958 31.2643 0.103709 31.4307C0.187324 31.5763 0.354554 31.6803 0.375458 31.8259C0.417265 32.4916 0.689014 32.4707 1.04438 32.0963C1.31613 31.8051 1.33703 32.5748 1.60878 32.2211C1.7551 32.0339 1.96414 31.8883 2.21499 31.6387C2.23589 31.9507 2.25679 32.0963 2.23589 32.2627C2.21499 32.6996 2.19408 32.658 1.60878 32.7204C1.27432 32.7412 0.939858 32.8868 1.08618 33.386C1.25341 33.9268 1.21161 34.3637 0.856243 34.8837C0.605399 35.2373 0.83534 35.4661 1.25341 35.1125C1.33703 35.0501 1.58787 35.3829 1.83872 35.4661C2.23589 35.5909 2.21499 36.215 2.48673 36.4646C2.90481 36.839 3.30198 36.111 3.78277 36.2358C3.92909 36.2774 4.07542 36.319 4.17994 36.423C4.38897 36.631 4.74434 36.839 4.05451 36.9638C3.69915 37.0262 3.72005 37.5671 4.09632 37.9207C4.17994 38.0039 4.45169 38.0663 4.34717 38.1495C3.86638 38.5447 4.57711 38.8776 4.36807 39.2728C4.24265 39.5224 4.47259 39.7096 4.70253 39.6472C5.30874 39.46 4.63982 39.3144 4.68163 39.1272C4.74434 38.8776 4.61892 38.5655 4.84886 38.3367C5.58049 38.6487 5.05789 39.7096 5.74772 40.0216C5.83133 39.4808 6.31212 39.2728 6.58387 38.8984C6.68838 38.7527 6.52115 38.2119 6.96013 38.6487C7.21098 38.8776 7.14827 39.0024 6.96013 39.2728C6.81381 39.46 6.68838 39.876 6.91832 40.0632C7.62905 40.0216 7.37821 38.9608 8.08893 38.94C8.27707 39.46 7.92171 40.0424 8.23526 40.6457C8.36068 40.292 8.71605 40.2296 8.75785 39.8136C8.79966 39.4392 9.19683 39.564 9.40587 39.6472C9.99117 39.8552 9.36406 39.9592 9.34316 40.1256C9.34316 40.292 9.25954 40.4585 9.40587 40.5833C9.74033 40.8953 9.53129 41.3113 9.5522 41.6857C9.5731 41.8937 9.36406 42.0602 9.28045 41.9769C8.75785 41.4985 8.4443 41.9145 8.06803 42.2266C7.77538 41.8105 7.64996 41.8521 7.58724 42.393C7.56634 42.5802 7.3364 42.5386 7.29459 42.3514C7.23188 42.1018 7.42001 41.8105 7.21098 41.5609C6.70929 41.8729 6.41664 42.2474 6.7929 42.8714C7.12736 43.4538 7.42002 43.1418 7.81719 42.9546C8.06803 42.8298 8.38159 42.9754 8.67424 42.7258C8.86237 42.5594 9.28045 42.4762 9.34316 42.3722C9.38497 42.4554 9.48948 42.5386 9.48948 42.6218C9.46858 43.017 9.74033 43.1834 9.94937 43.3914C10.0957 43.1834 10.4302 43.121 10.4302 42.7674C10.4302 42.601 10.4929 42.393 10.6601 42.5386C10.7855 42.6426 10.7855 42.913 10.89 43.3082C11.2036 42.9546 11.4544 42.6634 11.7053 42.393C11.0364 41.8105 12.0188 41.3737 11.8307 40.8329C12.1234 40.8745 12.4787 40.7289 12.4369 41.3113C12.3951 42.0602 12.2488 42.8298 12.4787 43.5787C12.6669 42.6426 12.8759 41.6649 12.7087 40.7913C12.6041 40.3128 12.7714 40.0216 12.8968 39.7304C13.0222 39.3976 13.4194 39.1896 13.8584 38.7735C13.8166 39.2728 13.8375 39.5016 13.7957 39.7096C13.7538 39.876 13.6075 39.8968 13.4612 39.9384C12.8341 40.1464 13.2731 40.4377 13.3985 40.7705C13.4821 41.0201 13.4194 41.3321 13.7957 41.2905C13.8793 41.2905 14.0256 41.1865 14.0256 41.1241C14.0465 40.3544 14.6527 39.772 14.4855 38.94C14.8617 39.1688 15.2589 39.252 15.3216 39.4808C15.447 39.8136 15.3843 40.2504 15.3216 40.6249C15.1544 41.4153 16.0324 40.4169 15.9487 41.0617C15.9069 41.2905 15.9278 41.5193 15.9069 41.7273C15.8024 42.3098 15.8233 42.7674 16.4713 42.9962C16.6804 43.0794 16.8685 43.3706 16.7222 43.6827C16.4922 44.1403 14.8408 44.6187 14.5691 44.2027C14.0674 43.4746 13.7747 43.8491 13.4194 44.2651C13.1476 44.5979 12.9804 44.5771 12.7296 44.2651C12.625 44.1403 12.3115 44.1819 12.2906 44.5147C12.2697 44.7227 12.2488 44.9931 12.3324 45.1387C12.4787 45.3884 12.6878 45.6172 12.3951 45.846C12.1234 46.054 11.977 45.7212 11.768 45.5964C11.5171 45.4716 11.0573 45.3052 10.9736 45.7004C10.7855 46.47 10.3047 46.1996 10.0748 45.9708C9.78214 45.7004 9.51039 45.7004 9.21774 45.7212C8.96689 45.742 7.85899 47.6765 8.00532 47.8221C8.52791 48.2797 8.00532 48.9246 8.33978 49.3822C8.4652 49.2782 8.56972 49.1118 8.69514 49.091C8.82056 49.0494 9.05051 49.0078 9.11322 49.2158C9.19683 49.4862 9.21774 49.7774 9.05051 50.0063C8.88328 50.2143 8.84147 49.9022 8.73695 49.8398C8.52791 49.6942 8.31888 49.6734 8.21436 49.9022C8.10984 50.0895 8.10984 50.4015 8.40249 50.4015C8.71605 50.4015 8.77876 50.7759 9.0296 50.7967C9.80304 50.8591 9.05051 51.712 9.5522 51.9824C9.65671 52.0448 9.25954 52.2944 9.11322 52.4816C8.94599 52.3568 8.98779 52.1904 8.98779 52.024C8.98779 51.8576 8.98779 51.712 8.96689 51.5247C7.9008 52.024 7.9217 52.024 7.96351 53.1681C7.98442 53.6257 7.9217 54.0625 7.8799 54.5201C7.8799 54.6033 7.77538 54.7489 7.71267 54.7697C7.56634 54.7906 7.39911 54.8322 7.29459 54.6449C7.14827 54.4161 6.91833 54.2705 6.96013 53.9377C6.98104 53.7921 6.83471 53.6881 6.66748 53.8753C6.56296 54.0001 6.33302 54.1873 6.35392 54.2081C6.89742 55.0402 6.41664 55.9346 6.47935 56.8083C6.50025 56.9331 6.47935 57.1827 6.70929 57.0163C7.16917 56.6835 7.37821 57.1827 7.67086 57.3491C7.9217 57.4947 8.06803 57.6403 8.33978 57.4115C8.63243 57.1619 8.92508 57.0787 8.94599 57.6195C8.96689 57.9316 9.0087 58.3892 8.50701 58.2436C7.8799 58.0564 7.3573 58.6804 6.73019 58.4932C6.50025 58.4308 6.10308 59.1172 6.2076 59.4708C6.33302 59.9493 6.35392 60.3653 6.12398 60.8437C5.85224 60.5109 5.60139 60.3029 5.45506 60.0117C5.16241 59.45 4.97428 60.2197 4.72343 60.0533C4.61892 60.0533 4.5144 60.0325 4.40988 60.0325C4.22174 60.0741 4.15903 59.8869 4.05451 59.7829C3.88728 59.6165 3.65734 59.5541 3.53192 59.7829C3.4065 60.0117 3.49011 60.4069 3.34379 60.5317C3.09294 60.7189 2.96752 60.1365 2.61216 60.2613C2.48673 60.3237 2.21499 60.2197 2.21499 60.3861C2.21499 61.0101 1.50426 61.0934 1.42064 61.6966C1.33703 62.2998 1.23251 62.279 0.584495 61.8838C0.145517 62.6743 0.66811 63.4231 0.647206 64.1927C0.542687 64.9 0.960762 65.2328 1.44155 65.5032C1.50426 65.5448 1.7133 65.108 1.81781 65.524C1.88053 65.7528 1.77601 66.1897 2.17318 65.7528C2.3195 65.6072 2.46583 65.6904 2.59125 65.6696C2.90481 65.5864 2.63306 64.9624 3.11385 65.0248C3.17656 65.8361 3.26017 65.9193 3.78277 65.4824C4.05451 65.2536 4.30536 65.004 4.68163 65.108C4.78615 65.7736 5.30874 65.3576 5.60139 65.5032C5.81043 65.628 6.10308 65.9193 6.2285 65.8568C6.93923 65.4824 7.83809 65.732 8.4443 65.0248C8.65334 64.7752 8.73695 64.8168 8.67424 64.7128C8.59062 64.5672 8.4652 64.4632 8.36068 64.3384C8.10984 64.588 7.83809 64.8584 7.9008 64.1719C7.94261 63.8599 7.79628 63.4647 8.15165 63.2567C8.50701 63.0487 8.00532 62.1126 8.71605 62.3622C9.13412 62.5078 9.0087 63.2151 9.0296 63.6727C9.0296 63.7559 8.88328 63.8391 8.86237 63.9223C8.82057 64.1511 8.86237 64.3592 9.15502 64.38C9.34316 64.38 9.48948 64.2968 9.46858 64.1095C9.40587 63.4647 9.84485 62.7991 9.32225 62.175C9.23864 62.071 9.40587 61.6134 9.48948 61.7382C9.84485 62.3414 10.1166 61.4262 10.3883 61.7174C10.7228 62.1126 10.9736 62.1958 11.4126 61.8006C11.6217 61.6134 11.8098 61.8838 11.8307 62.2582C11.8934 62.8823 11.3708 62.7159 11.1618 62.9447C11.0155 63.0903 10.7855 63.0279 10.6392 62.5494C10.3465 62.9239 9.88665 63.3815 9.92846 63.4647C10.2629 63.9847 9.92846 64.2968 9.80304 64.7128C9.67762 65.1496 10.2211 65.42 10.472 65.7528C10.5974 65.9193 10.8273 65.7528 11.0155 65.628C11.3708 65.3576 11.6008 65.4824 11.5799 65.9609C11.5381 66.5017 11.6844 67.0841 11.0991 67.4585C10.7019 67.7082 10.89 67.833 11.2245 67.8746C11.3708 67.8954 11.6008 67.8746 11.6635 67.9578C11.8098 68.2698 11.7889 68.6858 12.3115 68.6234C12.7505 68.5818 13.0431 69.3307 13.0849 69.3099C13.6702 68.7066 13.5448 69.3931 13.6493 69.6427C13.6702 69.6635 13.7329 69.7051 13.7538 69.6843C14.2346 69.2683 14.6109 70.0171 15.0917 69.8299C15.3216 69.7467 15.447 69.9339 15.4261 70.2251C15.3634 71.1404 15.8024 71.9932 15.677 72.9293C15.8442 72.7421 15.9069 72.3885 15.9905 72.3885C16.325 72.3885 16.8058 71.6188 16.973 72.5965C17.0566 73.0125 17.5165 73.1581 17.8719 73.0333C18.1436 72.9293 18.3318 72.6797 18.5826 73.0957C18.6453 73.2205 19.0007 73.1789 19.0425 72.8669C19.0843 72.4925 19.356 72.3677 19.6487 72.1805C19.6905 72.6381 19.6905 73.0749 19.7741 73.4701C19.795 73.5949 19.9414 74.0734 20.2967 73.6989C20.443 73.5325 20.6103 73.3037 20.7775 73.2829C21.0074 73.2621 21.3419 73.1581 21.4882 73.4285C21.6137 73.6365 21.4673 73.8238 21.321 73.9902C21.0492 74.3022 21.0492 74.5934 21.53 74.635C21.8645 74.6558 22.0944 74.6766 22.0944 75.1758C22.0944 75.4255 22.6797 75.4255 22.6588 75.1966C22.5543 74.3854 23.265 74.4478 23.5577 74.0942C23.704 74.5934 24.0594 75.0094 23.934 75.5919C23.8294 76.1119 24.2266 76.4655 24.3729 76.9024C24.4984 77.2768 24.7074 77.1312 24.9373 76.9231C25.1882 76.6943 25.0837 76.4031 25.1673 76.1743C25.2509 75.9455 24.4566 75.6335 25.2091 75.5711C25.6272 75.5295 25.439 75.9455 25.4599 76.1951C25.4599 76.3615 25.4599 76.5279 25.4181 76.6943C25.3345 77.1312 25.5017 77.2768 25.8989 77.2976C26.2543 77.2976 26.3588 77.1728 26.3588 76.8191C26.3588 76.4863 26.3797 76.1327 26.4215 75.7999C26.4215 75.7375 26.5678 75.6543 26.6514 75.6335C26.8187 75.5919 26.9859 75.6543 27.0277 75.8415C27.0695 75.9871 27.0277 76.1743 27.0068 76.3407C26.9232 76.8191 27.0277 77.0896 27.5503 77.048C27.8012 77.0272 27.9684 77.152 27.8848 77.4432C27.7593 77.9216 28.052 78.1712 28.3028 78.4416C28.5746 78.7121 28.7209 79.3153 29.2644 78.8993C29.3898 79.2945 29.5153 79.6897 29.6407 80.0849C29.6825 80.2306 29.787 80.2514 29.8497 80.1473C30.0797 79.7729 29.7661 79.2529 30.1424 78.8993C30.2887 79.6897 31.0203 79.7521 31.4384 80.1266C31.2503 80.7714 30.8113 81.1042 30.1424 81.021C30.3514 81.4786 30.7904 81.6034 30.7486 82.1027C30.7068 82.3731 30.6441 82.6851 31.0621 82.7059C31.3757 82.7059 31.7101 82.8307 31.7101 82.2691C31.7101 82.1235 31.9192 82.0403 32.0864 82.0819C32.2536 82.1235 32.3791 82.2275 32.3164 82.4355C32.2118 82.8931 32.6299 82.9971 32.7553 83.2467C33.1316 83.954 33.5706 82.9763 33.905 83.434C34.1141 83.7252 34.2186 83.2884 34.344 83.2051C34.5531 83.0595 34.7412 82.7891 35.0129 82.9971C35.2011 83.1427 35.222 83.434 35.4937 82.9763C35.7237 82.5395 35.7237 82.0403 35.9745 81.6658C36.518 81.9363 36.3299 82.7891 36.9152 83.0179C37.2496 82.5603 36.8943 81.8947 37.3333 81.333C37.4587 82.3939 37.4587 82.4355 38.3784 82.2483C38.6084 82.2067 38.6084 82.3523 38.7129 82.4147C39.0892 82.6019 39.779 82.7059 39.8208 82.4563C39.9671 81.6242 40.6151 82.4771 40.866 81.9987C40.9496 81.8531 41.5558 82.1443 41.5976 81.4786C41.6185 81.2914 41.9321 81.2914 42.1202 81.4578C42.3502 81.6658 42.4338 82.0819 42.81 82.0819C43.3326 82.0611 43.04 81.5826 43.1654 81.3122C43.2281 81.1666 43.2908 81.1666 43.479 81.2498C44.9213 81.9779 45.9456 80.9794 46.9908 80.1682C46.9072 79.5857 47.4298 79.6273 47.7015 79.5441C48.036 79.4193 48.4958 79.6897 48.7258 79.1697C49.5201 79.3777 50.2727 78.3376 51.1297 79.1697C51.4015 79.4401 51.9868 79.3361 51.8823 78.5872C51.8404 78.2752 52.1331 78.1712 52.2794 78.2752C52.6766 78.5665 53.2619 78.8577 53.3664 79.2737C53.5755 80.1058 54.098 80.0641 54.6624 80.1058C54.8088 80.1266 55.0178 80.0849 55.1223 80.1682C55.3732 80.3762 55.2059 80.6882 55.2059 80.9586C55.2059 81.0002 55.0805 81.0626 55.0178 81.1042C54.8297 80.8962 54.6624 80.6674 54.4952 80.4594C53.8263 81.125 53.8054 81.1666 54.5788 81.437C54.8297 81.5202 54.8924 81.8531 55.2059 81.8531C55.3523 81.8531 55.5613 82.1651 55.6658 82.1235C55.8958 82.0403 55.7494 81.5826 56.0421 81.4786C56.3557 81.3538 55.4568 80.917 56.1675 80.8962C56.5856 80.8754 56.4602 81.2498 56.4602 81.4994C56.4602 81.6658 56.4184 81.8323 56.4393 81.9987C56.4602 82.1859 56.5647 82.2691 56.7528 82.2691C57.0037 82.2691 57.1291 82.0819 57.2545 81.9155C57.5263 81.5618 57.15 81.6658 57.0246 81.6034C56.8782 81.541 56.711 81.437 56.8155 81.2498C57.0037 80.8754 57.2545 80.5426 57.2336 80.0641C57.2336 79.8977 57.5054 79.8977 57.6308 79.9601C57.798 80.0225 57.8607 80.1889 57.798 80.3554C57.7144 80.5426 57.5472 80.6882 57.4635 80.8754C57.4008 81.0418 57.4636 81.2914 57.6099 81.2914C58.4042 81.229 58.9895 82.2691 59.8675 81.7907C60.1392 81.6451 60.3901 82.4563 60.7036 81.8323C60.8081 82.0611 60.8918 82.2899 60.9963 82.4979C61.1844 82.3107 61.3725 82.1027 61.6025 81.9571C61.707 81.8739 61.9369 81.8531 62.0415 81.9155C62.5432 82.2899 62.9403 82.1235 63.2539 81.6451C63.5256 81.2082 63.7556 81.6867 63.9437 81.6451C64.5499 81.5618 65.0934 82.2691 65.4906 82.0195C66.3685 81.437 66.4731 82.1859 66.7866 82.6435C66.9329 82.8723 67.0793 83.0803 67.2674 83.3924C67.4137 83.0387 67.4764 82.6851 67.5601 82.6851C68.3126 82.6643 69.1278 82.4147 69.7549 83.0179C70.0685 83.3092 70.2357 83.6212 70.3612 82.8931C70.3821 82.7475 70.8419 83.0595 70.821 83.3716C70.821 83.4964 70.4657 83.5796 70.6538 83.7044C70.9674 83.8916 71.4063 83.9124 70.821 84.3492C70.7165 84.4324 70.5284 84.6404 70.5493 84.682C70.6538 84.8693 70.7792 85.0773 70.9674 85.1605C71.1346 85.2437 71.3854 85.2021 71.5945 85.2229C71.9707 85.2437 72.2216 84.8693 72.0962 84.474C72.0753 84.4324 72.0544 84.3492 72.0334 84.3284C71.051 84.0372 72.0125 83.6212 71.9707 83.2675C72.5351 83.2883 72.4933 83.0595 72.2216 82.6643C72.138 82.5603 72.2216 82.3107 72.3888 82.2483C72.5142 82.2067 72.7651 82.1651 72.786 82.3731C72.8278 82.7267 72.9323 83.1011 73.2041 83.1843C73.9566 83.4548 73.8939 83.9124 73.4549 84.37C72.9323 84.9109 73.2877 85.6805 72.9323 86.2629C72.8487 86.3877 73.0577 86.6582 73.0577 86.6582C73.3086 86.2837 73.5176 86.5126 73.7476 86.679C74.0193 86.1797 74.3538 85.7013 74.5628 85.1813C74.7091 84.8068 74.312 84.6196 74.1238 84.37C73.8939 84.058 74.0611 83.7252 74.0611 83.4132C74.0611 82.9971 74.3747 82.9347 74.5628 83.1219C74.7927 83.3508 74.8973 83.3924 75.1481 83.1427C75.4408 82.8307 75.7961 82.5811 75.7334 82.0403C75.7125 81.8739 75.8588 81.7699 76.047 81.7907C76.2351 81.8115 76.3187 81.9155 76.3396 82.0819C76.3605 82.5603 76.1724 83.0387 76.5278 83.85C76.5905 82.7475 76.6532 81.9779 76.695 81.2498C77.8656 80.9378 78.7645 81.6034 79.7469 81.7491C79.8724 81.7699 79.8096 81.8739 79.7051 81.9779C79.287 82.4355 79.7678 82.2899 79.9351 82.3523C80.0814 81.6866 80.6458 81.7907 81.0639 81.6034C81.461 81.437 81.6283 80.917 81.461 80.6466C81.2729 80.3554 80.9175 80.189 80.7712 79.7521C80.7294 79.5857 80.3113 79.6065 80.0605 79.7105C79.9142 79.7729 79.7678 80.1473 79.6633 79.7313C79.6215 79.5441 79.6633 79.2737 79.726 79.0865C79.7887 78.8993 79.9978 78.9617 80.1441 78.9825C80.5204 79.0241 81.4192 79.7105 81.691 80.1266C82.0045 80.605 82.3181 81.021 82.7989 80.293C82.8407 80.2306 82.987 80.1682 83.0706 80.189C83.6141 80.3346 84.2412 79.9809 84.7011 80.5218C84.8683 80.709 85.2028 80.7298 85.2237 80.5218C85.2864 79.7729 85.8717 80.189 86.1226 79.9809C86.896 79.3777 87.8576 80.189 88.6101 79.5025C88.631 79.4817 88.7146 79.5025 88.7564 79.5025C88.9237 79.5025 89.1327 79.5649 89.1118 79.7313C89.0073 80.6882 90.157 79.8561 90.1779 80.605C90.4078 80.4178 90.7005 80.0225 90.6378 80.7506C90.596 81.2706 90.6796 81.3954 91.244 81.229C91.9338 81.021 92.6236 81.5826 92.7281 82.3523C92.7909 82.7059 92.8954 82.7683 93.188 82.8307C93.5643 82.9347 93.7106 82.4771 94.0242 82.5187C94.3168 82.5603 94.4841 83.1635 94.7976 82.8515C95.5292 82.1651 95.0694 83.2467 95.4456 83.2259C95.9682 82.5603 96.9925 82.2483 97.0134 81.021C97.0552 81.0626 97.8914 81.8531 97.8914 81.8531C98.3512 82.1235 98.8738 82.1443 99.5637 82.2067C98.7693 82.6019 98.8111 82.5811 98.9993 83.1843C99.1038 83.4964 99.1456 83.5172 99.3546 83.3092C99.6682 83.0179 100.191 83.4548 100.483 82.9139C100.525 82.8307 100.839 82.8931 100.922 83.2051C101.215 84.3492 101.466 84.4948 102.699 84.4116C102.95 84.3908 103.305 84.266 103.368 84.8276C103.41 85.3061 103.703 85.2645 103.974 84.9109C104.455 84.3076 104.455 84.37 105.145 84.8692C105.709 85.2853 106.211 85.9301 107.026 85.6805C108.26 86.4293 109.597 86.3045 110.852 85.8677C111.437 85.6597 111.855 86.3045 112.315 85.9301C112.817 85.5349 113.256 85.6181 113.715 85.9301L115.179 85.8261C115.848 85.7845 116.496 85.5349 117.165 85.5973C117.792 85.6597 118.502 85.8885 119.025 85.6597C119.548 85.4517 119.966 85.6389 120.154 85.8469C120.697 86.4085 121.345 86.1589 121.931 86.2213C122.516 86.2629 121.993 85.5141 122.349 85.3269C122.516 85.2437 122.6 84.8901 122.788 85.0565C122.913 85.1605 123.331 85.2853 122.997 85.6597C122.934 85.7221 122.871 85.8677 122.892 85.8885C123.289 86.3669 123.478 85.6389 123.833 85.6805C124.23 85.7221 123.958 85.4933 123.917 85.3061C123.707 84.4116 123.791 84.4324 124.606 84.37C125.463 84.3076 125.693 85.0981 126.216 85.5141C126.425 84.2244 127.24 83.7252 128.327 83.6212C128.578 83.6004 128.85 83.7044 129.038 83.434C129.435 82.8931 129.895 82.7059 130.522 83.0595C130.71 83.1635 131.003 83.1635 131.254 82.9347C131.567 82.6643 131.86 82.7891 132.215 83.0179C132.717 83.3508 133.24 83.33 133.741 82.8099C134.159 82.3523 134.013 82.8931 134.076 83.0803C134.138 83.2675 134.243 83.1843 134.389 83.1427C135.121 82.9971 135.497 83.3716 135.623 84.1828C135.644 84.266 135.706 84.37 135.769 84.3908C135.915 84.4324 136.103 84.4532 136.187 84.266C136.312 83.9748 136.145 83.6004 136.459 83.3508C136.793 83.1011 137.086 82.8099 137.19 83.4964C137.253 83.8708 137.399 83.8084 137.546 83.6004C137.985 82.9971 138.884 83.3924 139.26 82.6435C139.343 82.4563 139.636 82.5811 139.782 82.7891C139.929 82.9971 140.159 83.0803 140.305 82.8931C140.765 82.3107 140.995 83.0179 141.329 83.0387C141.392 82.4979 141.392 82.5187 141.956 82.3939C142.416 82.3107 143.002 81.8115 142.876 81.5618C142.604 81.021 143.043 81.0418 143.19 80.8338C143.232 80.7714 143.503 80.813 143.587 80.8754C143.733 81.0002 143.838 81.229 144.026 80.9378C144.151 80.7714 144.319 80.8338 144.465 80.8546C144.507 80.8546 144.569 81.0626 144.549 81.0834C144.047 81.5826 144.486 81.6242 144.778 81.4994C145.447 81.2082 146.074 80.7298 146.639 81.6451C146.681 81.7075 146.848 81.6867 146.932 81.6658C147.83 81.6034 147.83 81.5826 148.458 82.0611C148.708 82.2483 149.231 81.9571 149.231 82.3731C149.231 83.0803 149.712 82.7683 149.983 82.8931C150.422 83.1011 149.67 83.2675 149.963 83.6004C150.318 83.9956 150.715 83.8708 151.091 83.9748C151.572 84.0996 152.492 83.6212 152.262 84.8692C152.241 85.0149 152.45 85.0981 152.617 85.0773C152.91 85.0565 153.244 85.2645 153.495 84.9525C153.642 84.786 153.788 84.8484 153.788 85.0149C153.809 85.6805 154.06 85.6597 154.457 85.3061L155.063 84.9316C155.147 84.6612 155.188 84.578 155.377 84.7236C155.795 85.0565 155.941 85.0149 156.108 84.4324C156.171 84.2036 156.338 83.85 156.589 83.6004C156.735 83.8084 156.986 84.0164 156.986 84.2452C157.028 85.1397 157.843 84.8484 158.178 85.2437C158.575 85.7221 158.826 85.2645 159.097 85.1189C159.996 84.6612 161.062 84.9525 161.919 84.3076C162.317 83.9956 162.693 84.578 163.195 84.4948C164.052 84.3492 165.452 84.2036 166.142 83.746C166.267 83.6628 166.435 83.4548 166.539 83.5796C167.229 84.3492 167.543 83.4964 168.044 83.2467C168.755 82.8931 169.508 82.6643 170.26 82.4563C170.532 82.3731 170.887 82.3939 171.075 82.7683C171.41 83.4132 171.807 83.3092 172.162 82.7891C172.434 82.3731 172.852 82.7475 173.166 82.4979C173.542 82.1859 173.876 82.2067 174.253 82.5811C174.462 82.7891 175.047 82.7475 174.441 83.2051C174.775 83.3924 175.235 83.4964 175.026 84.1204C174.984 84.2244 175.131 84.4116 175.235 84.5156C175.319 84.5988 175.34 84.9109 175.549 84.6612C175.611 84.5988 175.653 84.4324 175.611 84.3492C175.444 84.0164 175.152 83.6836 175.862 83.7668C176.239 83.8084 176.594 83.85 176.782 84.2452C176.97 84.6196 177.346 84.6612 177.597 84.5364C177.932 84.37 178.224 84.2452 178.601 84.266C178.956 84.3076 179.374 84.4948 179.646 84.2244C180.085 83.7876 180.148 84.6196 180.545 84.4116C180.879 84.2452 181.339 84.5988 181.715 84.2036C182.133 83.7876 182.342 84.8068 182.761 84.4532C183.032 84.2244 183.199 84.162 183.555 84.4116C184.077 84.7652 184.788 84.682 185.248 85.3269C185.415 85.5557 186.042 85.4725 186.46 85.4101C186.879 85.3477 185.98 84.786 186.565 84.8068C187.255 84.8277 188.028 84.5988 188.551 85.4309C188.781 85.7845 189.282 85.6805 189.701 85.5765C189.805 85.5349 189.826 85.2437 190.056 85.4725C190.369 85.7845 190.892 85.9925 190.997 85.4517C191.122 84.8484 191.937 85.7845 191.749 84.9316C191.749 84.9109 192 84.4116 192.293 84.5988C192.439 84.682 192.272 85.0357 192.481 85.1605C192.711 85.0565 192.585 84.7236 192.753 84.6196C193.024 84.4324 193.045 84.9317 193.359 84.9109C193.798 84.8693 193.484 84.2452 193.902 84.2452C194.132 84.2452 194.278 84.3076 194.278 84.6196C194.278 85.0773 194.676 85.3477 195.156 85.3477C195.47 85.3477 195.721 85.3061 195.993 85.0565C196.682 84.4324 196.703 84.474 197.435 84.3076C197.351 84.058 197.038 84.1828 196.933 84.0372C196.745 83.746 197.163 83.7668 197.184 83.5796C197.268 82.9763 198.041 83.434 198.208 82.7475C198.334 82.2275 199.024 82.5811 199.463 82.6019C199.818 82.6019 200.048 82.4979 200.278 82.2483C200.508 81.9779 200.759 81.8115 201.051 82.1859C201.26 82.4563 201.448 82.3731 201.699 82.1859C201.992 81.9779 202.326 81.9155 202.619 81.6451C203.037 81.2706 203.079 81.333 203.581 81.9363C203.831 82.2275 204.5 82.1027 204.48 82.0611C203.978 81.3954 204.459 81.5202 204.814 81.541C205.357 81.5618 205.086 81.9987 205.128 82.2899C205.148 82.3939 205.211 82.4771 205.253 82.5811C205.629 82.3939 205.316 81.9155 205.546 81.7282C205.838 81.5202 205.943 82.0611 206.298 81.9987C206.716 81.9363 206.863 81.6451 207.113 81.3746C207.615 80.813 208.096 80.1682 208.89 80.1058C209.057 80.085 209.246 80.0225 209.329 80.3346C209.58 81.333 209.58 81.3746 209.852 81.4994C210.353 81.7282 210.646 82.1027 210.813 82.6643C210.939 83.0595 211.252 83.0803 211.399 82.6851C211.545 82.2899 211.608 82.2691 211.838 82.5811C211.963 82.7475 212.13 82.9971 212.277 82.9971C212.674 83.0387 212.966 82.5811 213.426 82.7267C213.635 82.7891 213.573 82.3523 213.698 82.2483C213.907 82.0611 213.928 81.7699 214.074 81.5618C214.388 81.1042 214.931 81.0626 215.37 80.8338C215.83 81.5202 216.771 81.5618 217.105 82.3731C217.252 82.7267 217.44 82.7475 217.691 82.5395C218.276 82.0819 218.819 82.3939 218.924 82.9139C219.154 83.9332 219.865 83.434 220.283 83.4548C220.722 83.4548 220.534 83.0179 220.325 82.7475C220.241 82.6643 220.283 82.5395 220.408 82.5187C220.764 82.4979 221.14 82.6019 221.391 82.2275C221.495 82.4563 221.537 82.7683 221.704 82.9347C221.892 83.1219 221.641 83.5172 221.997 83.5796C222.143 83.3508 222.394 83.2675 222.478 82.9555C222.624 82.3939 223.293 82.6643 223.293 82.7891C223.356 83.5796 223.878 83.3716 224.296 83.434C224.861 83.538 224.443 83.7044 224.338 83.9124C224.275 84.0372 224.296 84.2244 224.338 84.37C224.359 84.4532 225.467 84.6196 225.613 84.5988C226.219 84.5572 226.742 84.2036 227.285 84.058C227.892 83.8916 228.54 83.8708 229.125 83.5172C229.334 83.3924 229.648 83.5172 229.857 83.4132C230.254 83.2259 229.48 83.0179 229.836 82.8515C230.045 82.7475 230.442 82.8931 230.567 82.7475C230.965 82.2483 231.153 83.1011 231.592 82.8099C232.386 82.2899 233.118 82.5395 233.661 83.33C234.079 83.1219 233.557 82.3939 234.121 82.3939C234.623 82.3731 234.769 82.8307 234.811 83.3092C234.811 83.3508 234.874 83.3924 234.936 83.4548C235.103 83.2467 235.271 83.0595 235.438 82.8515C235.814 82.3523 236.483 81.9571 237.006 82.2483C237.675 82.6227 237.905 81.1874 238.532 81.9363C238.532 81.9363 238.636 81.8739 238.636 81.8323C238.657 81.0002 238.866 80.6466 239.577 81.3538C239.66 81.437 239.911 81.437 240.037 81.3746C240.768 81.0418 241.688 81.1666 242.294 80.7714C242.984 80.3138 243.841 80.2722 244.427 79.6273C244.531 79.5233 244.803 79.5649 244.824 79.2737C244.824 78.9409 244.615 78.9825 244.406 78.9201C243.82 78.7329 243.737 78.3792 244.092 78.296C244.594 78.192 244.28 76.9023 245.137 77.568C245.304 77.1312 245.576 76.6527 245.597 76.2575C245.66 75.5087 246.036 75.6959 246.433 75.6335C246.789 75.5711 247.102 76.1119 247.144 75.9247C247.332 75.1342 247.834 75.4671 248.231 75.4255C248.712 75.3839 248.879 74.8014 249.402 74.7182C249.694 74.6766 249.527 74.011 249.59 73.6365C249.59 73.5949 249.611 73.5533 249.778 73.4493L250.008 73.5741C249.945 73.7614 249.882 73.9486 249.882 74.0942C249.882 74.5102 250.05 74.7806 250.468 74.7182C250.781 74.6766 251.283 74.9678 251.325 74.4894C251.346 74.219 252.391 73.7822 251.325 73.5533C250.99 72.9085 251.346 72.0556 252.015 71.9932C252.161 71.9724 252.328 72.2845 252.474 72.2637C253.771 71.9932 255.004 71.5148 256.279 71.1196C256.321 70.3499 256.927 70.662 257.282 70.4539C257.721 70.1835 258.369 70.1419 258.474 69.3723C258.537 68.9771 259.059 70.0379 258.976 69.3307C258.913 68.7482 258.871 68.3738 259.435 67.9786C259.414 68.353 259.373 68.6858 259.373 69.0186C259.373 69.2059 259.456 69.3099 259.644 69.3307C259.833 69.3515 260 69.2475 259.979 69.1019C259.937 68.4154 260.251 67.8954 260.585 67.3961C260.857 67.5002 260.585 67.8954 260.794 67.9578C261.15 68.0618 260.94 67.625 261.045 67.5626C261.463 67.3129 261.129 67.0841 261.108 66.8137C260.982 65.7112 261.379 65.3368 262.529 65.3784C262.801 65.3784 263.198 64.8792 263.073 64.6088C262.926 64.3176 262.655 64.1095 263.01 63.7767C263.156 63.9847 263.407 64.1927 263.428 64.4424C263.491 64.9624 263.616 64.6712 263.867 64.6088C264.264 64.5048 263.888 65.0872 264.16 65.1704C264.285 65.212 264.557 65.212 264.578 65.1704C264.724 64.796 264.849 64.5256 265.33 64.6088C265.999 64.7752 265.895 64.2135 265.832 63.9847ZM4.89066 63.1735C4.93247 63.2151 4.97428 63.2775 5.01609 63.3191C4.97428 63.3399 4.93247 63.3607 4.86976 63.3607C4.86976 63.2983 4.86976 63.2359 4.89066 63.1735ZM2.11047 62.6118C2.11047 62.6118 2.11047 62.591 2.13137 62.591C2.19408 62.5286 2.23589 62.5286 2.2777 62.591C2.23589 62.591 2.17318 62.6118 2.11047 62.6118ZM20.7566 21.3004C20.7566 21.238 20.7775 21.1548 20.8193 21.1132C20.882 21.0092 20.9447 20.9884 20.9865 21.03C20.9029 21.0924 20.8193 21.1964 20.7566 21.3004Z" fill="#FFBE0B"/>
<path d="M91.7252 86.0549C91.3071 85.8885 91.119 85.6597 90.9936 85.1605C90.8681 84.7237 90.0529 85.1189 89.8857 84.474C89.8648 84.4324 89.8439 84.37 89.8648 84.3492C90.3037 83.9748 90.1156 83.85 89.6975 83.8708C89.4467 83.8708 89.175 83.7252 88.9659 83.9332C88.7778 84.3284 89.0495 84.8277 88.6733 85.1605C88.5896 85.0565 88.5269 84.9733 88.4642 84.8901C88.1298 84.4948 87.6281 84.1412 88.297 83.5588C88.4015 83.4548 88.3388 83.1428 88.0462 83.1012C87.6072 83.0388 87.0637 83.3716 86.8128 83.2052C86.1857 82.7891 86.123 83.0596 86.0812 83.6212C86.0603 83.954 86.0394 84.266 86.0185 84.7237C85.7676 84.5364 85.6422 84.4116 85.4959 84.3076C85.1405 84.0788 84.7852 84.6821 84.4507 84.37C83.949 83.9332 84.8061 83.6004 84.5761 83.122C84.3253 82.6227 84.2208 83.2468 84.0535 83.1636C83.8236 83.0179 84.0953 82.4979 83.74 82.5395C83.3846 82.5811 82.9874 82.7891 82.6948 83.018C82.5903 83.1012 82.5276 83.538 82.7575 83.7668C83.092 83.6836 82.862 83.2468 83.1547 83.1428C83.2383 83.3716 83.3219 83.642 83.4473 83.85C83.5728 84.058 83.6355 84.266 83.4473 84.4324C83.2592 84.5988 83.1129 84.4324 82.9038 84.3492C82.423 84.1204 82.1722 83.8292 82.3394 83.2468C82.3603 83.1428 82.3603 83.018 82.3603 82.9139C82.4021 82.2691 82.1304 82.2275 81.7332 82.5811C81.5869 82.7059 81.4406 82.7475 81.3151 82.6851C81.0643 82.5395 80.8971 82.0611 80.5626 82.4355C80.2491 82.7683 80.7716 82.9763 80.7507 83.2884C80.7298 83.7252 80.7089 84.162 80.6671 84.5781C80.2282 84.7237 79.8937 84.6405 79.4338 84.5781C79.4547 83.7668 79.2248 82.8931 79.0993 82.9555C78.7022 83.1428 78.2632 83.226 77.9496 83.6004C77.8451 83.7252 77.7197 83.85 77.5943 83.9332C77.3434 84.1204 76.9881 84.6196 76.8627 84.4116C76.4864 83.7044 75.9429 84.8069 75.5875 84.162C75.3785 83.7876 75.0022 83.9124 75.0022 84.3908C75.0022 85.2437 74.6678 86.1381 75.1276 86.9702C75.3576 87.3862 75.9638 87.5942 76.361 87.303C76.5282 87.1782 76.2355 87.3862 76.2982 87.1782C76.4655 86.7206 76.5073 86.6998 76.6118 86.8454C76.7581 87.0534 76.9463 87.199 77.009 87.5318C77.1135 88.1975 77.3016 87.511 77.4689 87.511C78.4095 87.5734 78.4513 87.5942 78.9112 86.887C79.0784 86.6374 79.0575 86.679 79.2875 86.783C79.6637 86.9286 79.8728 87.3862 80.3118 87.3446C80.3536 88.1143 80.8762 88.0935 81.3988 88.0935C81.5242 88.0935 81.5869 88.1351 81.6078 88.3639C81.7123 89.0503 82.1722 89.2999 82.5903 88.9879C82.9038 88.7591 83.1965 88.2599 83.2592 89.1335C83.2592 89.1751 83.3219 89.2167 83.3637 89.2375C83.8236 89.508 85.8095 89.8616 86.3529 89.7576C86.7501 89.6952 86.9592 89.2583 86.771 88.6967C86.6874 88.4679 86.6665 88.2599 86.8755 88.1351C86.9801 88.0727 87.1682 88.1559 87.2936 88.2183C87.4399 88.3223 87.5445 88.6343 87.6908 88.2183L88.4642 87.5734C88.736 87.4902 88.9868 87.4486 88.9868 87.8855C88.9868 88.1975 89.0913 88.2807 89.3213 88.0519C89.4676 87.9063 89.6557 87.8023 89.6557 87.5318C89.6557 87.3446 89.7812 87.2614 89.9693 87.2614C90.2619 87.2822 90.241 87.4902 90.2828 87.719C90.3874 88.3015 90.3874 88.2807 90.9727 88.0935C91.0981 88.0519 91.328 88.0311 91.3907 88.1143C91.5789 88.3431 91.7879 88.4471 92.0597 88.4263C92.4568 88.4263 92.4986 88.3223 92.2269 87.9895C92.0806 87.8023 92.2269 87.615 92.3105 87.4278C92.645 86.5334 92.6241 86.4294 91.7252 86.0549Z" fill="#FFBE0B"/>
<path d="M250.008 76.9648C249.673 77.0896 249.36 76.4032 249.318 76.736C249.171 77.6929 248.879 76.8608 248.67 76.8608C248.231 76.84 248.126 76.1536 247.875 76.1952C247.52 76.2368 247.311 76.7152 246.851 76.84C246.496 76.9232 246.287 77.4641 245.639 77.4225C245.931 77.7761 246.287 78.0465 246.245 78.1921C245.952 79.253 246.893 79.149 247.29 79.3778C247.75 79.6482 248.273 79.1906 248.795 79.0866C248.712 78.9618 248.523 78.7537 248.544 78.7329C248.691 78.5249 248.858 78.5665 249.067 78.6913C249.715 79.0242 249.694 79.0242 249.799 78.4001C249.861 78.0257 249.673 77.5889 250.028 77.2976C250.175 77.152 250.091 76.944 250.008 76.9648Z" fill="#FFBE0B"/>
<path d="M256.718 23.2557C256.634 22.8605 256.488 22.4653 256.362 22.0701C255.631 22.7773 255.631 22.7773 255.756 23.5886C255.777 23.7966 255.693 24.067 255.965 24.1086C256.258 24.171 256.529 24.1502 256.822 23.8798C257.178 23.547 256.759 23.4638 256.718 23.2557Z" fill="#FFBE0B"/>
<path d="M13.5452 70.8493C13.5034 71.9933 13.5034 71.9933 14.7367 72.0349C14.7994 70.7037 14.7994 70.7037 13.5452 70.8493Z" fill="#FFBE0B"/>
<path d="M142.772 82.5602C142.416 82.7266 142.061 82.893 141.726 83.0802C141.622 83.1426 141.371 82.893 141.413 83.2258C141.434 83.309 141.643 83.4131 141.789 83.4131C142.479 83.4339 143.002 82.8722 143.67 82.7058C143.357 82.4146 143.064 82.4354 142.772 82.5602Z" fill="#FFBE0B"/>
<path d="M14.9248 28.3313C14.9457 27.9153 14.9666 27.5201 15.0084 26.9792C14.0886 27.5201 14.7366 27.9153 14.9248 28.3313Z" fill="#FFBE0B"/>
</svg>
