<svg width="40" height="40" viewBox="0 0 40 40" fill="none" xmlns="http://www.w3.org/2000/svg">
<path d="M22.64 10.88C21.92 10.88 21.28 10.56 20.88 9.99996C20.48 9.35996 20.32 8.55996 20.56 7.91996C21.28 5.51996 20.96 3.51996 19.44 2.15996C17.52 0.399956 14.08 0.319957 10.64 1.83996C8.39999 2.87996 0.799988 7.27996 0.799988 19.92C0.799988 30.48 7.43999 39.12 15.68 39.12C24.48 39.12 30.56 29.44 30.56 20.72C30.56 17.92 29.92 15.6 28.72 13.92C27.36 11.92 25.2 10.88 22.64 10.88ZM8.95999 10.4C10.48 10.4 11.76 11.68 11.76 13.2C11.76 14.72 10.56 16 8.95999 16C7.35999 16 6.15999 14.72 6.15999 13.2C6.15999 11.68 7.43999 10.4 8.95999 10.4ZM4.63999 20.24C4.63999 18.72 5.91999 17.44 7.43999 17.44C8.95999 17.44 10.24 18.72 10.24 20.24C10.24 21.76 8.95999 23.04 7.43999 23.04C5.91999 23.04 4.63999 21.84 4.63999 20.24ZM9.75999 30.56C8.23999 30.56 6.95999 29.28 6.95999 27.76C6.95999 26.24 8.23999 24.96 9.75999 24.96C11.28 24.96 12.56 26.24 12.56 27.76C12.56 29.28 11.36 30.56 9.75999 30.56ZM16.16 34.8C14.64 34.8 13.36 33.52 13.36 32C13.36 30.48 14.64 29.2 16.16 29.2C17.68 29.2 18.96 30.48 18.96 32C18.96 33.52 17.76 34.8 16.16 34.8ZM25.68 22.16C25.28 22.96 24.56 23.44 23.76 23.68C23.52 23.76 23.28 23.76 23.04 23.76C21.36 23.76 19.76 22.4 19.12 20.4C18.72 19.12 18.88 17.84 19.44 16.8C19.84 16 20.56 15.52 21.36 15.28C23.28 14.8 25.28 16.24 26 18.56C26.4 19.84 26.24 21.12 25.68 22.16ZM39.2 8.23995C39.2 5.67996 35.36 1.51996 34.96 1.03996C34.72 0.799956 34.4 0.719956 34.08 0.799956C33.76 0.879956 33.6 1.19996 33.6 1.51996C33.44 5.19996 32.72 5.83996 32 6.55996C31.84 6.71996 31.68 6.79996 31.52 6.95996C30.48 8.07996 30.16 9.75996 30.8 11.12C31.12 11.76 31.52 12.24 32.08 12.64C31.84 16.24 31.68 18.4 31.68 22.24C31.68 26.56 31.84 30.64 32.24 33.68C32.8 38.32 33.44 39.2 34.4 39.2C35.36 39.2 36 38.32 36.48 33.76C36.8 30.72 37.04 26.64 37.04 22.32C37.04 18.4 36.88 16.24 36.64 12.64C38.16 11.76 39.2 10.16 39.2 8.23995Z" fill="#60CFF1"/>
</svg>
